# exported by https://3dviewer.net
mtllib model.mtl
g mine
v 0 -0.139385 0
v 0.100859 -0.062335 0.073278
v -0.038524 -0.062335 0.118567
v 0.100859 -0.062335 -0.073278
v -0.12467 -0.062335 0
v -0.038524 -0.062335 -0.118567
v 0.12467 0.062335 0
v 0.038524 0.062335 0.118567
v -0.100859 0.062335 0.073278
v -0.100859 0.062335 -0.073278
v 0.038524 0.062335 -0.118567
v 0 0.139385 0
v 0.038489 0.094786 -0.027963
v 0.08037 0.130042 -0.058392
v 0.034787 0.088796 -0.046399
v 0.047474 0.076815 -0.055617
v 0.063863 0.070825 -0.046399
v 0.067565 0.076815 -0.027964
v 0.054878 0.088796 -0.018746
v -0.014702 0.094786 -0.045246
v -0.030699 0.130042 -0.09448
v -0.033379 0.088796 -0.047422
v -0.038225 0.076815 -0.062336
v -0.024394 0.070825 -0.075075
v -0.005716 0.076815 -0.072899
v -0.00087 0.088796 -0.057985
v -0.047575 0.094786 0
v -0.099343 0.130042 0
v -0.055416 0.088796 0.017091
v -0.071098 0.076815 0.017091
v -0.078939 0.070825 0
v -0.071098 0.076815 -0.017091
v -0.055416 0.088796 -0.017091
v -0.014702 0.094786 0.045246
v -0.030699 0.130042 0.09448
v -0.00087 0.088796 0.057985
v -0.005716 0.076815 0.072899
v -0.024394 0.070825 0.075075
v -0.038225 0.076815 0.062336
v -0.033379 0.088796 0.047422
v 0.038489 0.094786 0.027963
v 0.08037 0.130042 0.058392
v 0.054878 0.088796 0.018746
v 0.067565 0.076815 0.027964
v 0.063863 0.070825 0.046399
v 0.047474 0.076815 0.055617
v 0.034787 0.088796 0.046399
v 0.091353 0.02924 -0.045246
v 0.130041 0.030698 -0.09448
v 0.07981 0.038932 -0.057984
v 0.071261 0.02924 -0.072899
v 0.074256 0.009856 -0.075075
v 0.085799 0.000163 -0.062336
v 0.094348 0.009856 -0.047422
v -0.014802 0.02924 -0.100863
v -0.049671 0.030699 -0.152872
v -0.030484 0.038932 -0.093821
v -0.047311 0.02924 -0.0903
v -0.048455 0.009856 -0.093821
v -0.032772 0.000163 -0.100863
v -0.015946 0.009856 -0.104384
v -0.100501 0.02924 -0.017091
v -0.16074 0.030699 0
v -0.09865 0.038932 0
v -0.100501 0.02924 0.017091
v -0.104203 0.009856 0.017091
v -0.106054 0.000163 0
v -0.104203 0.009855 -0.017091
v -0.047311 0.02924 0.0903
v -0.049671 0.030699 0.152872
v -0.030485 0.038932 0.093821
v -0.014802 0.02924 0.100863
v -0.015946 0.009856 0.104384
v -0.032772 0.000163 0.100863
v -0.048455 0.009855 0.093821
v 0.071261 0.02924 0.072899
v 0.130041 0.030698 0.09448
v 0.079809 0.038932 0.057985
v 0.091353 0.02924 0.045246
v 0.094348 0.009856 0.047422
v 0.0858 0.000163 0.062336
v 0.074256 0.009855 0.075075
v 0.032772 -0.000163 -0.100863
v 0.049672 -0.030699 -0.152872
v 0.015946 -0.009856 -0.104384
v 0.014802 -0.02924 -0.100863
v 0.030484 -0.038932 -0.093821
v 0.047311 -0.02924 -0.0903
v 0.048455 -0.009856 -0.093821
v -0.085799 -0.000163 -0.062336
v -0.130041 -0.030698 -0.09448
v -0.094348 -0.009856 -0.047422
v -0.091353 -0.02924 -0.045246
v -0.07981 -0.038932 -0.057984
v -0.071261 -0.02924 -0.072899
v -0.074256 -0.009856 -0.075075
v -0.085799 -0.000163 0.062336
v -0.130041 -0.030698 0.09448
v -0.074256 -0.009856 0.075075
v -0.071261 -0.02924 0.072899
v -0.07981 -0.038932 0.057984
v -0.091353 -0.02924 0.045246
v -0.094348 -0.009856 0.047422
v 0.032772 -0.000163 0.100863
v 0.049671 -0.030699 0.152872
v 0.048455 -0.009856 0.093821
v 0.047311 -0.02924 0.0903
v 0.030484 -0.038932 0.093821
v 0.014802 -0.02924 0.100863
v 0.015946 -0.009856 0.104384
v 0.106054 -0.000163 0
v 0.16074 -0.030699 0
v 0.104203 -0.009856 -0.017091
v 0.100501 -0.02924 -0.017091
v 0.09865 -0.038932 0
v 0.100501 -0.02924 0.017091
v 0.104203 -0.009856 0.017091
v 0.038225 -0.076815 -0.062336
v 0.030699 -0.130042 -0.09448
v 0.024394 -0.070825 -0.075075
v 0.005716 -0.076815 -0.072899
v 0.00087 -0.088796 -0.057985
v 0.014702 -0.094786 -0.045246
v 0.033379 -0.088796 -0.047422
v -0.047474 -0.076815 -0.055617
v -0.08037 -0.130042 -0.058392
v -0.063863 -0.070825 -0.046399
v -0.067565 -0.076815 -0.027964
v -0.054878 -0.088796 -0.018746
v -0.038489 -0.094786 -0.027964
v -0.034787 -0.088796 -0.046399
v -0.067565 -0.076815 0.027964
v -0.08037 -0.130042 0.058392
v -0.063863 -0.070825 0.046399
v -0.047474 -0.076815 0.055617
v -0.034787 -0.088796 0.046399
v -0.038489 -0.094786 0.027963
v -0.054878 -0.088796 0.018746
v 0.071098 -0.076815 -0.017091
v 0.099343 -0.130042 0
v 0.055416 -0.088796 -0.017091
v 0.047575 -0.094786 0
v 0.055416 -0.088796 0.017091
v 0.071098 -0.076815 0.017091
v 0.078939 -0.070825 0
v 0.005716 -0.076815 0.072899
v 0.030699 -0.130042 0.09448
v 0.024394 -0.070825 0.075075
v 0.038225 -0.076815 0.062336
v 0.033379 -0.088796 0.047422
v 0.014702 -0.094786 0.045246
v 0.00087 -0.088796 0.057985
vn 0.1876 -0.7947 0.5774
vn 0.6071 -0.7947 0
vn -0.4911 -0.7947 0.3568
vn -0.4911 -0.7947 -0.3568
vn 0.1876 -0.7947 -0.5774
vn 0.9822 -0.1876 0
vn 0.3035 -0.1876 0.9342
vn -0.7946 -0.1876 0.5774
vn -0.7946 -0.1876 -0.5774
vn 0.3035 -0.1876 -0.9342
vn 0.7946 0.1876 0.5774
vn -0.3035 0.1876 0.9342
vn -0.9822 0.1876 0
vn -0.3035 0.1876 -0.9342
vn 0.7946 0.1876 -0.5774
vn 0.4911 0.7947 0.3568
vn -0.1876 0.7947 0.5774
vn -0.6071 0.7947 0
vn -0.1876 0.7947 -0.5774
vn 0.4911 0.7947 -0.3568
vn -0.6818 0.7248 -0.0986
vn -0.4292 0.2196 -0.8761
vn 0.3883 -0.2857 -0.8761
vn 0.9532 -0.2857 -0.0986
vn 0.7006 0.2196 0.6789
vn -0.1169 0.7248 0.6789
vn -0.3045 0.7248 0.618
vn -0.9659 0.2196 0.1375
vn -0.7132 -0.2857 -0.6401
vn 0.2008 -0.2857 -0.9371
vn 0.8622 0.2196 -0.4565
vn 0.6096 0.7248 0.321
vn 0.4936 0.7248 0.4805
vn -0.1677 0.2196 0.9611
vn -0.8291 -0.2857 0.4805
vn -0.8291 -0.2857 -0.4805
vn -0.1677 0.2196 -0.9611
vn 0.4936 0.7248 -0.4805
vn 0.6096 0.7248 -0.321
vn 0.8622 0.2196 0.4565
vn 0.2008 -0.2857 0.9371
vn -0.7132 -0.2857 0.6401
vn -0.9659 0.2196 -0.1375
vn -0.3045 0.7248 -0.618
vn -0.1169 0.7248 -0.6789
vn 0.7006 0.2196 -0.6789
vn 0.9532 -0.2857 0.0986
vn 0.3883 -0.2857 0.8761
vn -0.4292 0.2196 0.8761
vn -0.6818 0.7248 0.0986
vn 0.3757 0.8694 0.321
vn -0.1892 0.8694 -0.4565
vn -0.3453 0.0518 -0.937
vn 0.0634 -0.7657 -0.6401
vn 0.6283 -0.7657 0.1374
vn 0.7845 0.0518 0.618
vn 0.4214 0.8694 -0.2581
vn -0.4926 0.8694 0.0389
vn -0.9979 0.0518 0.0389
vn -0.5891 -0.7657 -0.2581
vn 0.3249 -0.7657 -0.5551
vn 0.8302 0.0518 -0.5551
vn -0.1153 0.8694 -0.4805
vn -0.1153 0.8694 0.4805
vn -0.2714 0.0518 0.9611
vn -0.4276 -0.7657 0.4805
vn -0.4276 -0.7657 -0.4805
vn -0.2714 0.0518 -0.9611
vn -0.4927 0.8694 -0.0389
vn 0.4214 0.8694 0.2581
vn 0.8302 0.0518 0.5551
vn 0.3249 -0.7657 0.5551
vn -0.5891 -0.7657 0.2581
vn -0.9979 0.0518 -0.0389
vn -0.1892 0.8694 0.4565
vn 0.3757 0.8694 -0.321
vn 0.7845 0.0518 -0.618
vn 0.6283 -0.7657 -0.1375
vn 0.0634 -0.7657 0.6401
vn -0.3453 0.0518 0.937
vn -0.3249 0.7657 -0.5551
vn -0.8302 -0.0518 -0.5551
vn -0.4214 -0.8694 -0.2581
vn 0.4926 -0.8694 0.0389
vn 0.9979 -0.0518 0.0389
vn 0.5891 0.7657 -0.2581
vn -0.6283 0.7657 0.1374
vn -0.7845 -0.0518 0.618
vn -0.3757 -0.8694 0.321
vn 0.1892 -0.8694 -0.4565
vn 0.3453 -0.0518 -0.937
vn -0.0634 0.7657 -0.6401
vn -0.0634 0.7657 0.6401
vn 0.3453 -0.0518 0.937
vn 0.1892 -0.8694 0.4565
vn -0.3757 -0.8694 -0.321
vn -0.7845 -0.0518 -0.618
vn -0.6283 0.7657 -0.1374
vn 0.5891 0.7657 0.2581
vn 0.9979 -0.0518 -0.0389
vn 0.4926 -0.8694 -0.0389
vn -0.4214 -0.8694 0.2581
vn -0.8302 -0.0518 0.5551
vn -0.3249 0.7657 0.5551
vn 0.4276 0.7657 -0.4805
vn 0.2714 -0.0518 -0.9611
vn 0.1153 -0.8694 -0.4805
vn 0.1153 -0.8694 0.4805
vn 0.2714 -0.0518 0.9611
vn 0.4276 0.7657 0.4805
vn 0.7132 0.2857 -0.6401
vn -0.2008 0.2857 -0.9371
vn -0.8622 -0.2196 -0.4565
vn -0.6096 -0.7248 0.321
vn 0.3045 -0.7248 0.618
vn 0.9659 -0.2196 0.1375
vn -0.3883 0.2857 -0.8761
vn -0.9532 0.2857 -0.0986
vn -0.7006 -0.2196 0.6789
vn 0.1169 -0.7248 0.6789
vn 0.6818 -0.7248 -0.0986
vn 0.4292 -0.2196 -0.8761
vn -0.9532 0.2857 0.0986
vn -0.3883 0.2857 0.8761
vn 0.4292 -0.2196 0.8761
vn 0.6818 -0.7248 0.0986
vn 0.1169 -0.7248 -0.6789
vn -0.7006 -0.2196 -0.6789
vn 0.1677 -0.2196 -0.9611
vn -0.4937 -0.7248 -0.4805
vn -0.4936 -0.7248 0.4805
vn 0.1678 -0.2196 0.9611
vn 0.8291 0.2857 0.4805
vn 0.8291 0.2857 -0.4805
vn -0.2008 0.2857 0.9371
vn 0.7132 0.2857 0.6401
vn 0.9659 -0.2196 -0.1375
vn 0.3045 -0.7248 -0.618
vn -0.6096 -0.7248 -0.321
vn -0.8622 -0.2196 0.4565
usemtl Material
f 1//1 2//1 3//1
f 2//2 1//2 4//2
f 1//3 3//3 5//3
f 1//4 5//4 6//4
f 1//5 6//5 4//5
f 2//6 4//6 7//6
f 3//7 2//7 8//7
f 5//8 3//8 9//8
f 6//9 5//9 10//9
f 4//10 6//10 11//10
f 2//11 7//11 8//11
f 3//12 8//12 9//12
f 5//13 9//13 10//13
f 6//14 10//14 11//14
f 4//15 11//15 7//15
f 8//16 7//16 12//16
f 9//17 8//17 12//17
f 10//18 9//18 12//18
f 11//19 10//19 12//19
f 7//20 11//20 12//20
f 13//21 14//21 15//21
f 15//22 14//22 16//22
f 16//23 14//23 17//23
f 17//24 14//24 18//24
f 18//25 14//25 19//25
f 19//26 14//26 13//26
f 20//27 21//27 22//27
f 22//28 21//28 23//28
f 23//29 21//29 24//29
f 24//30 21//30 25//30
f 25//31 21//31 26//31
f 26//32 21//32 20//32
f 27//33 28//33 29//33
f 29//34 28//34 30//34
f 30//35 28//35 31//35
f 31//36 28//36 32//36
f 32//37 28//37 33//37
f 33//38 28//38 27//38
f 34//39 35//39 36//39
f 36//40 35//40 37//40
f 37//41 35//41 38//41
f 38//42 35//42 39//42
f 39//43 35//43 40//43
f 40//44 35//44 34//44
f 41//45 42//45 43//45
f 43//46 42//46 44//46
f 44//47 42//47 45//47
f 45//48 42//48 46//48
f 46//49 42//49 47//49
f 47//50 42//50 41//50
f 48//51 49//51 50//51
f 50//52 49//52 51//52
f 51//53 49//53 52//53
f 52//54 49//54 53//54
f 53//55 49//55 54//55
f 54//56 49//56 48//56
f 55//57 56//57 57//57
f 57//58 56//58 58//58
f 58//59 56//59 59//59
f 59//60 56//60 60//60
f 60//61 56//61 61//61
f 61//62 56//62 55//62
f 62//63 63//63 64//63
f 64//64 63//64 65//64
f 65//65 63//65 66//65
f 66//66 63//66 67//66
f 67//67 63//67 68//67
f 68//68 63//68 62//68
f 69//69 70//69 71//69
f 71//70 70//70 72//70
f 72//71 70//71 73//71
f 73//72 70//72 74//72
f 74//73 70//73 75//73
f 75//74 70//74 69//74
f 76//75 77//75 78//75
f 78//76 77//76 79//76
f 79//77 77//77 80//77
f 80//78 77//78 81//78
f 81//79 77//79 82//79
f 82//80 77//80 76//80
f 83//81 84//81 85//81
f 85//82 84//82 86//82
f 86//83 84//83 87//83
f 87//84 84//84 88//84
f 88//85 84//85 89//85
f 89//86 84//86 83//86
f 90//87 91//87 92//87
f 92//88 91//88 93//88
f 93//89 91//89 94//89
f 94//90 91//90 95//90
f 95//91 91//91 96//91
f 96//92 91//92 90//92
f 97//93 98//93 99//93
f 99//94 98//94 100//94
f 100//95 98//95 101//95
f 101//96 98//96 102//96
f 102//97 98//97 103//97
f 103//98 98//98 97//98
f 104//99 105//99 106//99
f 106//100 105//100 107//100
f 107//101 105//101 108//101
f 108//102 105//102 109//102
f 109//103 105//103 110//103
f 110//104 105//104 104//104
f 111//105 112//105 113//105
f 113//106 112//106 114//106
f 114//107 112//107 115//107
f 115//108 112//108 116//108
f 116//109 112//109 117//109
f 117//110 112//110 111//110
f 118//111 119//111 120//111
f 120//112 119//112 121//112
f 121//113 119//113 122//113
f 122//114 119//114 123//114
f 123//115 119//115 124//115
f 124//116 119//116 118//116
f 125//117 126//117 127//117
f 127//118 126//118 128//118
f 128//119 126//119 129//119
f 129//120 126//120 130//120
f 130//121 126//121 131//121
f 131//122 126//122 125//122
f 132//123 133//123 134//123
f 134//124 133//124 135//124
f 135//125 133//125 136//125
f 136//126 133//126 137//126
f 137//127 133//127 138//127
f 138//128 133//128 132//128
f 139//129 140//129 141//129
f 141//130 140//130 142//130
f 142//131 140//131 143//131
f 143//132 140//132 144//132
f 144//133 140//133 145//133
f 145//134 140//134 139//134
f 146//135 147//135 148//135
f 148//136 147//136 149//136
f 149//137 147//137 150//137
f 150//138 147//138 151//138
f 151//139 147//139 152//139
f 152//140 147//140 146//140
